<svg xmlns="http://www.w3.org/2000/svg" xmlns:xlink="http://www.w3.org/1999/xlink" viewBox="0 0 1366 768"><defs><style>.cls-1{fill:aqua;}</style></defs><title>Plan de travail 3</title><g id="Calque_3" data-name="Calque 3"><image width="1280" height="800" transform="translate(70.8) scale(0.95 0.96)" xlink:href="institutvideo.jpg"/><path class="cls-1" d="M0,0V767H1366V0ZM937.4,404.23,990.89,298l65.22,99.42Zm187.71,103.83-99.28,65.43-7-118.69ZM436.5,323.53,405.72,438.38,321.64,354.3ZM404,281.66l91.9-75.44,19.38,117.31Zm87,58.83,59.45,103H431.47Zm32.54-105.72h118.9l-59.45,103Zm117,66.57,44.58,110.23-117.75-16.5Zm22.44-46L778.1,285l-83.21,84.94ZM702.52,429l-67.27,98L584,419.73Zm34.17,52.53V600.4l-103-59.45Zm-10.62-35.78,19.42-117.31,91.88,75.47Zm88.47-124.36,114.85-30.77L898.61,405.43Zm72,147.6-83.21,84.94-32-114.53Zm-6.13-35.1h118.9l-59.45,103Zm173.8-221,115.16,29.59-83.21,84.94Zm87.7-129.67-83.21,84.94-32-114.53Zm-136.81,198-106.3-53.27,99.28-65.43Zm-42-153.36-99.28,65.43-7-118.69ZM877.71,295.17,762.55,265.58l83.21-84.94ZM691.94,34.59l91.88,75.47L672.52,151.9Zm92.9,113.13L745,259.73,667.9,169.19ZM671.35,205.63,553.6,189.12,626.77,95.4ZM556.5,38.58,545.9,157,448.64,88.62Zm-53.33,123.5L403.88,227.5l-7-118.69ZM308.36,28.89l55.22,105.3-118.8-4.83ZM361.74,159.1,315.37,268.58l-71.63-94.9ZM269.8,319.19l44.58,110.23-117.75-16.5ZM200.92,558.4l118.54,9.24-67.27,98ZM386.5,715.72l-84.08-84.08,114.85-30.77ZM333,583.92V465l103,59.45Zm104.24,90.76,39.88-112,77.07,90.55Zm34-187.2,114.85-30.77L555.37,571.56Zm121.17,62.59,97.26,68.39-107.86,50Zm139.88,186.5-99.92-64.44,105.77-54.32Zm25.26-31,10.6-118.43,97.26,68.39Zm146.63-68L807,569.15l107.86-50Zm42,48.53-7-118.69,106.3,53.27Zm103.44-6.6,76.83-90.75,40.18,111.91Zm26.43-221.69,53.49-106.19L1194.78,451Z"/></g></svg>