<svg xmlns="http://www.w3.org/2000/svg" viewBox="0 0 1366 768"><defs><style>.cls-1{fill:#ed1c24;}.cls-2,.cls-3{fill:#fff;}.cls-3{font-size:20.52px;font-family:ACaslonPro-Semibold, Adobe Caslon Pro;font-weight:700;}.cls-4{letter-spacing:0em;}.cls-5{letter-spacing:-0.01em;}.cls-6{letter-spacing:0.01em;}.cls-7{letter-spacing:-0.01em;}.cls-8{letter-spacing:-0.03em;}.cls-9{letter-spacing:-0.05em;}.cls-10{letter-spacing:0.02em;}.cls-11{letter-spacing:-0.09em;}.cls-12{letter-spacing:-0.01em;}.cls-13{letter-spacing:0.02em;}.cls-14{letter-spacing:0em;}.cls-15{letter-spacing:0em;}.cls-16{letter-spacing:-0.05em;}.cls-17{letter-spacing:-0.01em;}.cls-18{letter-spacing:0em;}.cls-19{letter-spacing:-0.03em;}.cls-20{fill:#231f20;}.cls-21{fill:none;stroke:#ed1c24;stroke-miterlimit:10;stroke-width:3px;}</style></defs><title>Plan de travail 2</title><g id="Calque_2" data-name="Calque 2"><rect class="cls-1" x="-0.19" y="1" width="1366.19" height="766"/><path class="cls-2" d="M551.32,349.92c12,10.89,29.59,15.61,44.88,20.08a428.55,428.55,0,0,0,56.09,12.21,785.74,785.74,0,0,0,80.54,7.44c38.71,1.81,77.56,1.5,116.29,1.31,40.08-.19,80.29,1.33,120.36,2.28,47.4,1.12,94.9,1.6,142.11,6.27l-10.14-1c23.43,2.35,46.86,4.9,70.09,8.81,22.86,3.84,45.18,10.81,68.4,11.7,26.68,1,53.2-10,58.15-35.65,2.39-12.43,1.32-26.26-6.11-37a54.36,54.36,0,0,0-29.54-21.18c-25.24-6.83-40.32-7.69-81.91-6.65-24.76.62-49.47,2.88-74.11,5.26-50.41,4.88-100.8,9.17-151,15.65C868.19,350.72,780.89,363,692.79,362.85c-22.22,0-44.41-.45-66.32-4.5a331.42,331.42,0,0,1-38-9.22c-10.47-3.25-20.37-7.83-30.81-11C550.94,336.09,546.36,345.42,551.32,349.92Z"/><text class="cls-3" transform="translate(696.23 279.46)">En<tspan class="cls-4" x="25.34" y="0">t</tspan><tspan class="cls-5" x="32.23" y="0">r</tspan><tspan x="39.37" y="0">e dans le monde m</tspan><tspan class="cls-6" x="193.52" y="0">y</tspan><tspan x="202.71" y="0">sté</tspan><tspan class="cls-6" x="226" y="0">r</tspan><tspan x="233.55" y="0">ieux de ce site </tspan><tspan class="cls-7" x="350.99" y="0">w</tspan><tspan x="364.78" y="0">e</tspan><tspan class="cls-8" x="373.68" y="0">b</tspan><tspan class="cls-9" x="383.71" y="0">..</tspan><tspan class="cls-8" x="392.66" y="0">.</tspan><tspan x="397.54" y="0"> </tspan><tspan class="cls-10" x="0" y="24.62">C</tspan><tspan class="cls-11" x="15.8" y="24.62">’</tspan><tspan x="17.97" y="24.62">est une p</tspan><tspan class="cls-5" x="91.57" y="24.62">r</tspan><tspan x="98.71" y="24.62">omess</tspan><tspan class="cls-12" x="150" y="24.62">e</tspan><tspan class="cls-8" x="158.74" y="24.62">,</tspan><tspan x="163.63" y="24.62"> </tspan><tspan class="cls-4" x="167.94" y="24.62">t</tspan><tspan x="174.83" y="24.62">u en so</tspan><tspan class="cls-13" x="232.46" y="24.62">r</tspan><tspan class="cls-14" x="240.18" y="24.62">t</tspan><tspan x="247.07" y="24.62">i</tspan><tspan class="cls-4" x="252.63" y="24.62">r</tspan><tspan x="260.08" y="24.62">as </tspan><tspan class="cls-4" x="281.07" y="24.62">c</tspan><tspan x="289.75" y="24.62">han</tspan><tspan class="cls-15" x="321.28" y="24.62">g</tspan><tspan class="cls-12" x="331.31" y="24.62">é</tspan><tspan class="cls-8" x="340.05" y="24.62">.</tspan><tspan x="344.94" y="24.62"> </tspan></text><text class="cls-3" transform="translate(696.23 440.87)">Enter in the m<tspan class="cls-6" x="121.75" y="0">y</tspan><tspan x="130.94" y="0">ste</tspan><tspan class="cls-6" x="154.23" y="0">r</tspan><tspan x="161.78" y="0">ious </tspan><tspan class="cls-7" x="200.5" y="0">w</tspan><tspan x="214.28" y="0">o</tspan><tspan class="cls-10" x="224.75" y="0">r</tspan><tspan x="232.5" y="0">ld of this </tspan><tspan class="cls-7" x="309.67" y="0">w</tspan><tspan x="323.46" y="0">ebsit</tspan><tspan class="cls-12" x="362.95" y="0">e</tspan><tspan class="cls-16" x="371.69" y="0">..</tspan><tspan class="cls-8" x="380.64" y="0">.</tspan><tspan x="0" y="24.62">It is a p</tspan><tspan class="cls-5" x="60.65" y="24.62">r</tspan><tspan x="67.79" y="24.62">omess</tspan><tspan class="cls-8" x="119.08" y="24.62">,</tspan><tspan x="123.97" y="24.62"> </tspan><tspan class="cls-17" x="128.28" y="24.62">y</tspan><tspan x="137.02" y="24.62">ou wi</tspan><tspan class="cls-6" x="182.05" y="24.62">l</tspan><tspan x="187.59" y="24.62">l le</tspan><tspan class="cls-4" x="211.47" y="24.62">a</tspan><tspan class="cls-7" x="220.67" y="24.62">v</tspan><tspan x="229.86" y="24.62">e it </tspan><tspan class="cls-14" x="259.73" y="24.62">c</tspan><tspan x="268.41" y="24.62">han</tspan><tspan class="cls-18" x="299.95" y="24.62">g</tspan><tspan x="309.98" y="24.62">ed</tspan><tspan class="cls-19" x="329.74" y="24.62">.</tspan><tspan x="334.62" y="24.62"> </tspan></text><line class="cls-20" x1="1104.27" y1="367.44" x2="1258.16" y2="367.44"/><line class="cls-21" x1="1104.27" y1="367.44" x2="1254.9" y2="367.44"/><polygon class="cls-1" points="1244.96 379.71 1242.91 377.51 1253.75 367.44 1242.91 357.37 1244.96 355.17 1258.15 367.44 1244.96 379.71"/><path class="cls-2" d="M110.11,69.85c-9.22,10-7.8,24-1,34.73,7.2,11.3,17.55,20.22,27.53,29,12.28,10.79,25,21.17,36.76,32.49s27,25.86,28.5,42.88c.51,5.65,9.48,5.58,8.81,0-1.9-16-12.46-27.48-23.56-38.23-11.6-11.23-24.36-21-37.1-30.91-11.63-9-24-18.22-33.75-29.35-3.82-4.38-8-9.73-9.93-15.28-3-8.62-.13-17.3,4.71-24.56.4-.6-.51-1.3-1-.77Z"/><path class="cls-2" d="M257.2,346.93c-12.46-5.41-25.22.35-33.15,10.29-8.37,10.5-13.42,23.17-18.48,35.5-6.64,16.17-12.65,32.65-20.21,48.43-6.83,14.26-15.45,31.43-30.63,38.2-5.12,2.29-.69,10.08,4.45,7.61,13.71-6.59,21-20.23,27.24-33.42,6.81-14.42,12-29.45,17.1-44.54,4.89-14.42,9.61-29.66,17.23-42.93a56.91,56.91,0,0,1,10.17-13.47c7.17-6.59,16.89-6.84,25.8-4.52.67.17,1.17-.86.49-1.16Z"/><path class="cls-2" d="M257,680.81c-4-11.55-15.77-17.92-27.48-17.51-13.33.46-26,5-38.39,9.58-16,5.87-31.79,12.42-48,17.7-15.51,5-36.08,11.89-52,5.07-5.82-2.49-9.36,5.7-3.4,8.05,14.88,5.87,30.79,1.28,45.32-3.41,15.35-5,30-11.6,44.75-18.12,13.51-6,27.89-12.86,42.52-15.58,5.87-1.09,12.61-2.18,18.48-.56,8,2.21,13.3,8.18,17.05,15.27a.64.64,0,0,0,1.16-.49Z"/><path class="cls-2" d="M224.42,553.84c-.16,11.59,8.14,21.68,18.76,25.37,12.84,4.47,26.61,4.47,40,4.41,17.91-.07,35.85-1,53.76-.28,16,.62,36.41,1.51,48.77,13.09,4.15,3.89,10.47-2.48,6.23-6.23-11.37-10.06-26.11-11.8-40.72-12.51-17.28-.85-34.47.47-51.7,1.68-15.06,1.06-31.27,2.75-46.24.11-5.25-.93-11.09-2-15.69-4.85-7.51-4.6-10.8-12.63-12-21-.1-.72-1.23-.52-1.24.17Z"/><path class="cls-2" d="M568.48,65C570.74,76.38,581,84.48,592.2,85.85c13.68,1.67,27.35-1.3,40.65-4.23,17.25-3.8,34.37-8.34,51.78-11.4,15.86-2.79,36.1-6.11,50.69,2.67,4.87,2.93,9.39-4.82,4.45-7.61-13.48-7.59-28.75-5.85-43.4-3.39-16.5,2.77-32.49,7.48-48.53,12.13-14.38,4.17-29.72,9.18-44.77,9.92-5.64.27-12,.49-17.34-1.43-8.22-2.92-13.15-10-16-17.84a.63.63,0,0,0-1.22.34Z"/><path class="cls-2" d="M1213.5,138.7c-9.84,8.46-10.6,22.18-5.48,33.27,5.75,12.46,15.22,22.83,24.32,32.92,11.14,12.35,22.71,24.38,33.28,37.23,10.33,12.57,23.28,28.77,22.81,45.91-.15,5.66,8.82,5.68,8.81,0,0-16-9.69-28.84-19.4-40.72-10-12.22-21.24-23.22-32.49-34.25-10.63-10.43-22.08-21.14-30.48-33.52-3.13-4.61-6.23-9.88-7.73-15.26-2.54-9.14,1.4-17.84,7.24-24.7a.63.63,0,0,0-.89-.89Z"/><path class="cls-2" d="M637.16,452c-8.33-10.65-22.35-11.52-33.94-6.61-12.33,5.23-22.84,14-33.12,22.38-13.11,10.74-25.88,22-39.53,32-13,9.59-29.36,21.26-46.32,20-5.63-.42-5.68,8.55,0,8.81,16.2.74,29.77-8.75,42.16-18s23.7-19.8,35-30.32c10.92-10.12,22.14-21,34.9-28.83,4.76-2.91,10.15-5.75,15.6-7,9.26-2.09,17.74,2.28,24.31,8.43.61.57,1.38-.27.89-.89Z"/><path class="cls-2" d="M736.73,690.12c2.26,11.38,12.57,19.48,23.72,20.84,13.68,1.67,27.35-1.3,40.65-4.23,17.25-3.8,34.37-8.34,51.78-11.4,15.86-2.79,36.1-6.11,50.69,2.67,4.87,2.93,9.39-4.82,4.45-7.61-13.48-7.59-28.75-5.85-43.4-3.39-16.5,2.77-32.49,7.48-48.53,12.13-14.38,4.17-29.72,9.18-44.77,9.92-5.64.27-12,.49-17.34-1.43-8.22-2.92-13.15-10-16-17.84a.63.63,0,0,0-1.22.34Z"/><path class="cls-2" d="M517.95,78.93C506.52,80.43,497.62,90,495.5,101c-2.53,13.2-.64,26.6,1.31,39.75,2.69,18.14,6.34,36.17,8.22,54.42,1.66,16.06,3.48,36-6.24,49.95-3.23,4.64,4.5,9.21,7.61,4.45,8.65-13.23,7.55-29.28,5.92-44.31-1.76-16.25-5.32-32.15-8.81-48.1-3.19-14.56-7.12-30.07-6.86-45.07.1-6,.31-12.8,3.11-18.25,3.82-7.42,10.62-11.42,18.36-13.69.65-.19.56-1.34-.17-1.24Z"/><path class="cls-2" d="M88.15,305.45c2.92,11.9,14.16,19.22,25.86,19.88,13.47.76,26.67-2.74,39.57-6.2,16.77-4.49,33.39-9.68,50.34-13.45,15.76-3.51,36.06-7.94,51.09.22,5,2.72,9.49-5.06,4.45-7.61-13.75-7-28.75-4.75-43.26-1.67-16.41,3.49-32.23,8.9-48.09,14.27-14.26,4.82-29.44,10.56-44.52,12-5.59.52-12,1-17.4-.65-8.36-2.54-13.6-9.38-16.82-17.1a.63.63,0,0,0-1.22.34Z"/><path class="cls-2" d="M307.21,215.17c12.09,4.7,24.57-1.08,31.95-10.82,8.31-11,13-24.18,17.65-37,6-16.41,11.31-33.11,18.2-49.16,6.21-14.45,14.16-32.08,29-39.42,5.06-2.5.59-10.28-4.45-7.61-13.75,7.31-20.5,21.5-26.29,35.25-6.19,14.72-10.73,30-15.24,45.26-4.26,14.44-8.34,29.74-15.41,43.11-2.59,4.91-5.81,10.16-9.85,14-6.89,6.53-16.41,7.12-25.2,5.19a.63.63,0,0,0-.34,1.22Z"/><path class="cls-2" d="M942.45,552.14c-4.81,12,.87,24.58,10.54,32,10.9,8.41,24.06,13.2,36.84,18,16.35,6.12,33,11.6,49,18.65,14.41,6.36,31.94,14.45,39.15,29.35,2.46,5.07,10.24.61,7.61-4.45-7.31-14.06-21.87-21-35.8-26.92-14.42-6.17-29.35-10.75-44.33-15.31-14.4-4.39-29.65-8.62-43-15.8-4.89-2.64-10.1-5.9-13.89-10-6.47-7-7-16.47-5-25.25a.63.63,0,0,0-1.22-.34Z"/><path class="cls-2" d="M1203.76,56.95c-12.46-5.41-25.22.35-33.15,10.29-8.37,10.5-13.42,23.17-18.48,35.5-6.64,16.17-12.65,32.65-20.21,48.43-6.83,14.26-15.45,31.43-30.63,38.2-5.12,2.29-.69,10.08,4.45,7.61,13.71-6.59,21-20.23,27.24-33.42,6.81-14.42,12-29.45,17.1-44.54,4.89-14.42,9.61-29.66,17.23-42.93a56.91,56.91,0,0,1,10.17-13.47c7.17-6.59,16.89-6.84,25.8-4.52.67.17,1.17-.86.49-1.16Z"/><path class="cls-2" d="M1251.5,621.39c6.49-12,1.73-25.2-7.48-33.94-9.73-9.23-22-15.39-33.79-21.47-14.73-7.57-29.75-14.68-44.11-22.94-13.94-8-31.86-18.38-37.44-34.43-1.86-5.36-10.5-2.93-8.5,2.34,5.77,15.16,19.15,23.81,32.65,31.58,13.67,7.87,28.1,14.16,42.53,20.5,13.54,5.95,27.74,11.91,40,20.28a58.12,58.12,0,0,1,12.44,11.06c6.23,7.76,5.7,17.67,2.55,26.53-.24.68.82,1.11,1.16.49Z"/><path class="cls-2" d="M822.48,634.45c3.56-12.44-3.27-24.36-13.64-30.81-11.44-7.12-24.67-10.55-37.59-13.94-16.52-4.34-33.23-8.07-49.53-13.17-15.33-4.79-34.88-11-43.8-25.48-3-4.83-10.72-.29-7.61,4.45,8.39,12.77,22.36,18.31,36.36,22.83,16,5.16,32.45,8.35,48.92,11.59,14.71,2.89,30.61,5.46,44.38,11.6,5.11,2.28,10.88,5,14.85,9.06,6.33,6.41,7.48,15.19,6.42,23.71-.09.72,1.05.83,1.24.17Z"/><path class="cls-2" d="M998.58,195.18c9.64-9.64,8.75-23.71,2.39-34.68-6.72-11.59-16.72-20.94-26.33-30.12-11.83-11.3-24.08-22.22-35.41-34s-25.77-27-26.6-44.12c-.27-5.67-9.25-5.63-8.81,0,1.23,16,11.47,28,22,39.09,11.11,11.69,23.44,22,35.75,32.39,11.29,9.52,23.4,19.28,32.62,30.9,3.57,4.5,7.41,9.93,9.1,15.48,2.67,8.75-.61,17.28-5.75,24.33-.43.59.5,1.26,1,.77Z"/><path class="cls-2" d="M429.08,703.07c8.57,9.73,22.3,10.34,33.33,5.09,12.4-5.9,22.64-15.48,32.63-24.71,12.22-11.29,24.1-23,36.82-33.71,12.43-10.47,28.47-23.65,45.61-23.39,5.67.09,5.68-8.89,0-8.81-16,.21-28.74,10-40.51,19.86-12.1,10.13-23,21.52-33.87,32.91-10.31,10.76-20.88,22.33-33.16,30.89-4.57,3.19-9.81,6.33-15.17,7.91-9.1,2.68-17.88-1.19-24.79-6.94a.63.63,0,0,0-.89.89Z"/><path class="cls-2" d="M290.52,471.6c10.76,8.33,24.52,5.89,34.66-1.79,10.68-8.09,18.73-19.12,26.64-29.8,10.09-13.63,19.73-27.65,30.52-40.74,10.32-12.52,23.3-27.79,40.1-30.71,5.53-1,3.24-9.64-2.34-8.5-15.84,3.23-26.69,15.8-36.4,27.79-9.57,11.81-17.84,24.53-26.11,37.26-8.16,12.56-16.39,25.79-26.76,36.68A58.61,58.61,0,0,1,317.9,472.3c-8.66,4.93-18.36,2.85-26.61-1.7-.6-.33-1.36.54-.77,1Z"/><path class="cls-2" d="M1236.29,694.54c-5.42-11-18-15.7-29.58-13.81-13.46,2.19-25.76,8.58-37.73,14.81-15.21,7.92-30.15,16.43-45.69,23.69-14.76,6.9-33.68,15.49-50.21,10.77-5.46-1.56-7.84,7.1-2.34,8.5,15.76,4,30.77-2.32,44.87-8.89,14.49-6.75,28.09-15.08,41.75-23.33,12.57-7.59,25.77-16.12,39.77-20.82,5.33-1.79,11.34-3.6,17-3.44,9.08.26,16.1,6.09,21.07,13.16a.63.63,0,0,0,1.09-.64Z"/><path class="cls-2" d="M882,131c-5.42-11-18-15.7-29.58-13.81C839,119.36,826.68,125.75,814.7,132c-15.21,7.92-30.15,16.43-45.69,23.69-14.76,6.9-33.68,15.49-50.21,10.77-5.46-1.56-7.84,7.1-2.34,8.5,15.76,4,30.77-2.32,44.87-8.89,14.49-6.75,28.09-15.08,41.75-23.33,12.57-7.59,25.77-16.12,39.77-20.82,5.33-1.79,11.34-3.6,17-3.44,9.08.26,16.1,6.09,21.07,13.16A.63.63,0,0,0,882,131Z"/></g></svg>