<svg xmlns="http://www.w3.org/2000/svg" xmlns:xlink="http://www.w3.org/1999/xlink" viewBox="0 0 640 1136"><defs><style>.cls-1{fill:aqua;}</style></defs><title>iphon3</title><g id="Calque_3" data-name="Calque 3"><image width="1280" height="800" transform="translate(0 149) scale(0.5 1.08)" xlink:href="institutvideo.png"/><path class="cls-1" d="M640,0H0V1136H640ZM299.44,790.54,391,836.67,305.28,892.9ZM209.91,952.4,153.5,866.79l102.35-6.05ZM369,358.63l-99-26.54,72.5-72.5Zm36.1-28,65,79.25L369,426.54Zm-50.73,75-88.79,51.26V354.3Zm91.16,28.06V536.14l-88.79-51.26Zm-57.4,100.91-95,38.44,14.23-101.53Zm39.63,19.35-25.52,99.3L329,581.43ZM278.11,588l-84.54-58,92.5-44.21Zm-45.29,29.46H130.29l51.26-88.79Zm30.85-9.16,101.15,16.75-65.08,79.22ZM370.9,684.6l26.54,99-99-26.54ZM243.63,746.7,170.4,675l98.75-27.55Zm30.26-5.28V843.94l-88.79-51.26ZM464.49,891.28,439,990.58l-73.24-71.75ZM576.3,966.9l-73.24-71.75,98.75-27.55Zm-170.7-118,45.93-91.66,56.41,85.61ZM537.84,812.7,481.42,727.1,583.77,721ZM393.48,739.07,419,639.77l73.24,71.75ZM618.17,578.89l-65.08,79.22-36.07-96ZM520.62,659,424,624.61l78.07-66.45Zm-49.93-97.86L484.92,459.6l80.81,63.09Zm144-99L512.61,453l59-83.87Zm-106.49-46-56.41-85.61,102.35-6.05Zm114.84-168-90.8,47.61,4.16-102.44Zm-112.27,46-94.41-40,81.83-61.76Zm-138-79.28-95,38.44L292,151.8ZM166.51,155.5l-8,102.21L74,199.71Zm-135.65,160,72.5-72.5,26.54,99Zm113.64-46.1H247l-51.26,88.79ZM66.24,359.3l96.59,34.39L84.75,460.14Zm161.42,29.34,26.54,99-99-26.54Zm-54,104.48-59,83.87L71.57,484ZM12.88,613.73l55.57-86.16,46.83,91.2Zm26.73,21.78,102.12,9.14-59,83.87ZM98.26,762l59-83.87,43.15,93ZM56.42,798.13l102.35-6.05-45.93,91.66Zm5.69,89.19,78.25,66.24L43.87,988.21Zm191.16,22.79,91.56,46.12-85.73,56.23Z"/></g></svg>