<svg id="Calque_1" data-name="Calque 1" xmlns="http://www.w3.org/2000/svg" viewBox="0 0 640 1136"><defs><style>.cls-1,.cls-2{fill:blue;}.cls-2{font-size:50px;font-family:Impact, Impact;}.cls-3{letter-spacing:0.01em;}.cls-4{font-size:29px;fill:#fff;font-family:ACaslonPro-Semibold, Adobe Caslon Pro;font-weight:700;}.cls-5{letter-spacing:-0.01em;}.cls-6{letter-spacing:0em;}.cls-7{letter-spacing:0.01em;}.cls-8{letter-spacing:0.02em;}.cls-9{letter-spacing:-0.05em;}.cls-10{letter-spacing:-0.03em;}.cls-11{letter-spacing:0.01em;}.cls-12{letter-spacing:0.01em;}.cls-13{letter-spacing:0.01em;}.cls-14{letter-spacing:-0.01em;}.cls-15{letter-spacing:-0.01em;}.cls-16{letter-spacing:0.02em;}.cls-17,.cls-18,.cls-19{fill:#ff0;}.cls-17{opacity:0.35;}.cls-18{opacity:0.65;}</style></defs><title>iphone2</title><rect class="cls-1" x="27.06" y="66.48" width="560.31" height="120.83" transform="translate(-3.17 7.97) rotate(-1.48)"/><polygon class="cls-1" points="600.26 252.97 20 171.9 39.22 30.04 619.48 111.1 600.26 252.97"/><text class="cls-2" transform="translate(30.48 233.42)">MMMMMMMMMMMMMMMM<tspan x="0" y="60">MMMMMMMMMMMMMMMM</tspan><tspan x="0" y="120">MMMMMMMMMMMMMMMM</tspan><tspan x="0" y="180">MMMMMMMMMMMMMMMM</tspan><tspan x="0" y="240">MMMMMMMMMMMMMMMM</tspan><tspan x="0" y="300">MMMMMMMMMMMMMMMM</tspan><tspan class="cls-3"><tspan x="0" y="360">MMMMMMMMMMMMMMNM</tspan></tspan><tspan x="0" y="420">MMMMMMMMMMMMMMMM</tspan><tspan x="0" y="480">MMMMMMMMMMMMMMMM</tspan><tspan x="0" y="540">MMMMMMMMMMMMMMMM</tspan><tspan x="0" y="600">MMMMMMMMMMMMMMMM</tspan><tspan x="0" y="660">MMMMMMMMMMMMMMMM</tspan><tspan x="0" y="720">MMMMMMMMMMMMMMMM</tspan><tspan x="0" y="780">MMMMMMMMMMMMMMMM</tspan></text><text class="cls-4" transform="translate(49.7 102.97)">Che<tspan class="cls-5" x="50.14" y="0">r</tspan><tspan class="cls-6" x="60.23" y="0">c</tspan><tspan x="72.5" y="0">he </tspan><tspan class="cls-7" x="106.98" y="0">l</tspan><tspan x="114.75" y="0">’in</tspan><tspan class="cls-6" x="144.21" y="0">t</tspan><tspan class="cls-8" x="153.96" y="0">r</tspan><tspan x="164.86" y="0">u</tspan><tspan class="cls-9" x="180.12" y="0">..</tspan><tspan class="cls-10" x="192.76" y="0">.</tspan><tspan x="199.66" y="0"> </tspan><tspan class="cls-11" x="0" y="34.8">S</tspan><tspan x="16.44" y="34.8">i </tspan><tspan class="cls-12" x="30.39" y="34.8">t</tspan><tspan x="40.14" y="34.8">u es </tspan><tspan class="cls-6" x="90.88" y="34.8">b</tspan><tspan x="106.08" y="34.8">on et que </tspan><tspan class="cls-6" x="219.76" y="34.8">t</tspan><tspan x="229.5" y="34.8">u </tspan><tspan class="cls-13" x="250.85" y="34.8">l</tspan><tspan x="258.62" y="34.8">’as </tspan><tspan class="cls-12" x="293.97" y="34.8">t</tspan><tspan class="cls-5" x="303.71" y="34.8">r</tspan><tspan x="313.8" y="34.8">ou</tspan><tspan class="cls-14" x="343.85" y="34.8">v</tspan><tspan class="cls-15" x="356.84" y="34.8">é</tspan><tspan class="cls-10" x="369.19" y="34.8">,</tspan><tspan x="376.09" y="34.8"> </tspan><tspan class="cls-16" x="382.18" y="34.8">c</tspan><tspan x="394.89" y="34.8">lique dessus</tspan><tspan class="cls-10" x="534.26" y="34.8">.</tspan><tspan x="541.16" y="34.8"> </tspan></text><rect class="cls-17" x="559.19" y="1051.92" width="48.92" height="52.7" transform="translate(1661.92 494.63) rotate(90)"/><rect class="cls-17" x="506.48" y="1051.92" width="48.92" height="52.7" transform="translate(1609.22 547.33) rotate(90)"/><rect class="cls-17" x="453.78" y="1051.92" width="48.92" height="52.7" transform="translate(1556.52 600.03) rotate(90)"/><rect class="cls-17" x="401.08" y="1051.92" width="48.92" height="52.7" transform="translate(1503.81 652.74) rotate(90)"/><rect class="cls-17" x="348.37" y="1051.92" width="48.92" height="52.7" transform="translate(1451.11 705.44) rotate(90)"/><rect class="cls-17" x="295.67" y="1051.92" width="48.92" height="52.7" transform="translate(1398.41 758.14) rotate(90)"/><rect class="cls-17" x="242.97" y="1051.92" width="48.92" height="52.7" transform="translate(1345.7 810.85) rotate(90)"/><rect class="cls-17" x="190.26" y="1051.92" width="48.92" height="52.7" transform="translate(1293 863.55) rotate(90)"/><rect class="cls-17" x="137.56" y="1051.92" width="48.92" height="52.7" transform="translate(1240.3 916.25) rotate(90)"/><rect class="cls-18" x="84.86" y="1051.92" width="48.92" height="52.7" transform="translate(1187.59 968.96) rotate(90)"/><rect class="cls-19" x="32.16" y="1051.92" width="48.92" height="52.7" transform="translate(1134.89 1021.66) rotate(90)"/></svg>