<svg xmlns="http://www.w3.org/2000/svg" viewBox="0 0 640 1136"><defs><style>.cls-1{fill:#ed1c24;}.cls-2,.cls-5{fill:#fff;}.cls-3{fill:#231f20;}.cls-4{fill:none;stroke:#ed1c24;stroke-miterlimit:10;stroke-width:5px;}.cls-5{font-size:29px;font-family:ACaslonPro-Semibold, Adobe Caslon Pro;font-weight:700;}.cls-6{letter-spacing:0em;}.cls-7{letter-spacing:-0.01em;}.cls-8{letter-spacing:0.01em;}.cls-9{letter-spacing:-0.01em;}.cls-10{letter-spacing:-0.03em;}.cls-11{letter-spacing:-0.05em;}.cls-12{letter-spacing:0.02em;}.cls-13{letter-spacing:-0.09em;}.cls-14{letter-spacing:-0.01em;}.cls-15{letter-spacing:-0.01em;}.cls-16{letter-spacing:0.02em;}.cls-17{letter-spacing:0.01em;}.cls-18{letter-spacing:0em;}.cls-19{letter-spacing:0.02em;}.cls-20{letter-spacing:-0.01em;}</style></defs><title>iphone1</title><g id="Calque_2" data-name="Calque 2"><rect class="cls-1" x="-1.12" width="641.12" height="1136"/><path class="cls-2" d="M283.52,877.6c-11.55,1.18-20.35,12.4-22.07,23.25-2.11,13.33.25,26.72,2.68,39.85,3.23,17.51,7,35,9.43,52.65,2,14.84,4.23,34.13-4.31,47.42-6.13,9.54,9.63,18.81,15.22,8.9,8.2-14.56,6.21-30.5,3.26-46.25-3.09-16.52-7.91-32.49-12.77-48.56-4.23-14-9.08-29-9.63-43.73-.22-5.93-.41-12.59,2.34-18,3.57-7,9.64-10.14,16.49-13.16a1.27,1.27,0,0,0-.64-2.36Z"/><path class="cls-2" d="M573.52,33.6C562,34.78,553.17,46,551.45,56.85c-2.11,13.33.25,26.72,2.68,39.85,3.23,17.51,7,35,9.43,52.65,2,14.84,4.23,34.13-4.31,47.42-6.13,9.54,9.63,18.81,15.22,8.9,8.2-14.56,6.21-30.5,3.26-46.25-3.09-16.52-7.91-32.49-12.77-48.56-4.23-14-9.08-29-9.63-43.73-.22-5.93-.41-12.59,2.34-18,3.57-7,9.64-10.14,16.49-13.16a1.27,1.27,0,0,0-.64-2.36Z"/><path class="cls-2" d="M222.72,1065.3c-.45-12.26-11.92-21.53-23.12-23.77-13.29-2.65-26.84-1.09-40.16.55-17.44,2.14-34.94,4.65-52.49,5.75-15.1.95-33.81,1.69-46.6-7.77-9-6.65-18.5,8.94-8.9,15.22,13.42,8.78,29.17,7.93,44.42,6.09,16.58-2,32.74-5.55,49-9.33,14.44-3.36,29.84-7.29,44.76-7,5.18.08,10.88.28,15.78,2.13,8.38,3.17,12,10.7,14.83,18.51.46,1.26,2.54,1.18,2.49-.34Z"/><path class="cls-2" d="M588,1074.93c6.41-11.59.22-25.64-8.91-33.53-10.42-9-23.2-14.54-35.65-20.13-14.82-6.66-29.82-13.09-44.28-20.52a158.43,158.43,0,0,1-20.79-12.65c-6-4.36-12.64-9.83-15.55-16.86-4.83-11.68-21.7-4.8-16.11,6.79,7.19,14.89,21.95,22.23,36.34,28.67,14.11,6.31,28.62,11.26,43.31,16,14.11,4.59,28.86,9.2,41.84,16.53,4.83,2.73,10,6.11,13.63,10.32,6.22,7.13,5.49,15.79,3.85,24.37-.26,1.34,1.58,2.3,2.31,1Z"/><path class="cls-2" d="M272.8,184.54c11.15,7.24,25.6,1.88,34.12-6.65,9.74-9.76,16.16-22.2,22.64-34.23,7.73-14.36,15.24-28.92,23.72-42.86,7.53-12.39,17.85-29.09,32.4-33.93,10.86-3.61,5.72-21.13-4.69-17-15.79,6.28-24.41,19.27-32.2,33.7-7.44,13.8-13.5,28.15-19.39,42.66-5.67,14-11.44,28.56-19.79,41.2-3.1,4.69-7.13,9.94-11.78,13.18-7.58,5.27-15.81,3.81-24.06,1.61a1.27,1.27,0,0,0-1,2.31Z"/><path class="cls-2" d="M579.3,375c2.84-11.95-5.75-23.94-16-29.09-12.23-6.17-25.88-8.25-39.3-10.26-17.39-2.61-34.94-4.85-52.14-8.51-14.72-3.14-32.69-7.46-42.42-19.92-2.93-3.75-9.39-3.08-12.46,0-3.55,3.55-3.15,8.88,0,12.46,10.48,11.92,25.76,15.31,40.79,17.61,16.55,2.53,33.1,3.44,49.8,4.14,14.74.62,30.51,1,44.78,5.05,5.13,1.47,10.74,3.22,15.08,6.4,7.22,5.29,8.66,13.52,9.33,21.79.11,1.34,2.14,1.81,2.49.34Z"/><path class="cls-2" d="M336.89,865c4.54,12,18.75,16.72,30.43,15.08,13.46-1.9,25.87-7.86,38-13.69,15.07-7.23,30.09-14.79,45.53-21.21,14-5.83,32.21-13,47.42-8.16,10.8,3.46,15.7-14.16,4.69-17-16.41-4.23-31.41,2-46,8.94-14.48,6.91-28.07,15.2-41.7,23.62-12.45,7.69-25.66,16.27-39.65,20.89-5.37,1.78-11.61,3.72-17.32,3.22-8.73-.76-14.13-6.55-19.25-12.93-.78-1-2.55.08-2.12,1.23Z"/><path class="cls-2" d="M115.38,192.75c-8.59,11.14-3.37,26.23,4.88,35.6,8.9,10.1,20.64,17.3,31.82,24.59,13.52,8.81,27.25,17.38,40.32,26.85,12.1,8.77,27.48,20.48,31.19,35.73,2.68,11,20.32,6.2,17-4.69-4.87-15.94-17.59-25.56-31-34.29s-27.24-15.91-41.38-23.06C155,246.83,141.15,240,129.5,230.8c-4.34-3.43-9.12-7.77-12-12.53-4.88-8.11-2.77-16.3.18-24.54.53-1.47-1.52-2-2.31-1Z"/><path class="cls-2" d="M52.89,108c4.54,12,18.75,16.72,30.43,15.08,13.46-1.9,25.87-7.86,38-13.69,15.07-7.23,30.09-14.79,45.53-21.21,14-5.83,32.21-13,47.42-8.16,10.8,3.46,15.7-14.16,4.69-17-16.41-4.23-31.41,2-46,8.94-14.48,6.91-28.07,15.2-41.7,23.62-12.45,7.69-25.66,16.27-39.65,20.89-5.37,1.78-11.61,3.72-17.32,3.22C65.52,119,60.13,113.19,55,106.81c-.78-1-2.55.08-2.12,1.23Z"/><path class="cls-2" d="M118.8,949.43c12-4.57,16.68-18.78,15-30.46-1.92-13.45-7.92-25.85-13.77-38-7.26-15.05-14.85-30.05-21.31-45.47-5.86-14-13.12-32.18-8.28-47.39,3.44-10.81-14.18-15.7-17-4.69-4.19,16.42,2,31.41,9,46,6.94,14.46,15.26,28,23.72,41.65,7.72,12.44,16.33,25.63,21,39.6,1.79,5.37,3.74,11.61,3.26,17.32-.74,8.73-6.52,14.14-12.89,19.28a1.27,1.27,0,0,0,1.23,2.12Z"/><path class="cls-2" d="M16.7,539c9.58,8.63,23.62,12.33,35.82,15.84a341.35,341.35,0,0,0,44.72,9.53A625.85,625.85,0,0,0,161.41,570c30.84,1.3,61.78.93,92.63.64,31.92-.29,64,.78,95.88,1.4,37.76.73,75.59.94,113.21,4.5l-8.08-.77c18.67,1.79,37.34,3.74,55.86,6.77,18.22,3,36,8.45,54.52,9.08,21.26.73,42.34-8.11,46.19-28.6,1.86-9.91,1-20.92-5-29.43A43.3,43.3,0,0,0,583,516.88c-20.13-5.35-32.14-6-65.26-5-19.72.58-39.39,2.46-59,4.45-40.13,4.06-80.26,7.66-120.25,13-69.4,9.26-138.89,19.31-209.06,19.53-17.7.06-35.38-.21-52.84-3.36a264,264,0,0,1-30.3-7.21c-8.35-2.55-16.25-6.17-24.58-8.66C16.35,528,12.73,535.46,16.7,539Z"/><line class="cls-3" x1="484.5" y1="551.5" x2="581" y2="551.5"/><line class="cls-4" x1="484.5" y1="551.5" x2="575.58" y2="551.5"/><polygon class="cls-1" points="559.01 571.95 555.6 568.29 573.66 551.51 555.6 534.72 559.01 531.06 581 551.51 559.01 571.95"/><text class="cls-5" transform="translate(51.44 420.97)">En<tspan class="cls-6" x="35.81" y="0">t</tspan><tspan class="cls-7" x="45.56" y="0">r</tspan><tspan x="55.65" y="0">e dans le monde m</tspan><tspan class="cls-8" x="273.52" y="0">y</tspan><tspan x="286.52" y="0">sté</tspan><tspan class="cls-8" x="319.43" y="0">r</tspan><tspan x="330.1" y="0">ieux </tspan><tspan x="0" y="34.8">de ce site </tspan><tspan class="cls-9" x="111.68" y="34.8">w</tspan><tspan x="131.17" y="34.8">e</tspan><tspan class="cls-10" x="143.75" y="34.8">b</tspan><tspan class="cls-11" x="157.93" y="34.8">..</tspan><tspan class="cls-10" x="170.58" y="34.8">.</tspan><tspan x="177.48" y="34.8"> </tspan><tspan class="cls-12" x="183.57" y="34.8">C</tspan><tspan class="cls-13" x="205.9" y="34.8">’</tspan><tspan x="208.97" y="34.8">est une p</tspan><tspan class="cls-14" x="312.99" y="34.8">r</tspan><tspan x="323.08" y="34.8">omess</tspan><tspan class="cls-15" x="395.58" y="34.8">e</tspan><tspan class="cls-10" x="407.94" y="34.8">,</tspan><tspan x="414.84" y="34.8"> </tspan><tspan class="cls-6" x="0" y="69.6">t</tspan><tspan x="9.74" y="69.6">u en so</tspan><tspan class="cls-16" x="91.2" y="69.6">r</tspan><tspan class="cls-17" x="102.11" y="69.6">t</tspan><tspan x="111.85" y="69.6">i</tspan><tspan class="cls-6" x="119.71" y="69.6">r</tspan><tspan x="130.24" y="69.6">as </tspan><tspan class="cls-6" x="159.9" y="69.6">c</tspan><tspan x="172.17" y="69.6">han</tspan><tspan class="cls-18" x="216.74" y="69.6">g</tspan><tspan class="cls-15" x="230.92" y="69.6">é</tspan><tspan class="cls-10" x="243.27" y="69.6">.</tspan><tspan x="250.18" y="69.6"> </tspan></text><text class="cls-5" transform="translate(55.44 629.96)">Enter in the m<tspan class="cls-8" x="172.08" y="0">y</tspan><tspan x="185.07" y="0">ste</tspan><tspan class="cls-8" x="217.99" y="0">r</tspan><tspan x="228.66" y="0">ious </tspan><tspan class="cls-9" x="283.38" y="0">w</tspan><tspan x="302.87" y="0">o</tspan><tspan class="cls-19" x="317.66" y="0">r</tspan><tspan x="328.62" y="0">ld </tspan><tspan x="0" y="34.8">of this </tspan><tspan class="cls-9" x="80.1" y="34.8">w</tspan><tspan x="99.58" y="34.8">ebsit</tspan><tspan class="cls-15" x="155.41" y="34.8">e</tspan><tspan class="cls-11" x="167.76" y="34.8">..</tspan><tspan class="cls-10" x="180.41" y="34.8">.</tspan><tspan x="187.31" y="34.8" xml:space="preserve"> It is a p</tspan><tspan class="cls-7" x="279.12" y="34.8">r</tspan><tspan x="289.21" y="34.8">omess</tspan><tspan class="cls-10" x="361.71" y="34.8">,</tspan><tspan x="368.61" y="34.8"> </tspan><tspan class="cls-20" x="0" y="69.6">y</tspan><tspan x="12.35" y="69.6">ou wi</tspan><tspan class="cls-8" x="76.01" y="69.6">l</tspan><tspan x="83.84" y="69.6">l le</tspan><tspan class="cls-6" x="117.59" y="69.6">a</tspan><tspan class="cls-9" x="130.59" y="69.6">v</tspan><tspan x="143.58" y="69.6">e it </tspan><tspan class="cls-6" x="185.8" y="69.6">c</tspan><tspan x="198.07" y="69.6">han</tspan><tspan class="cls-18" x="242.64" y="69.6">g</tspan><tspan x="256.82" y="69.6">ed</tspan><tspan class="cls-10" x="284.75" y="69.6">.</tspan><tspan x="291.65" y="69.6"> </tspan></text></g></svg>