<svg xmlns="http://www.w3.org/2000/svg" viewBox="0 0 2732 2048"><defs><style>.cls-1{fill:#ed1c24;}.cls-2,.cls-3{fill:#fff;}.cls-3{font-size:46px;font-family:ACaslonPro-Semibold, Adobe Caslon Pro;font-weight:700;}.cls-4{letter-spacing:0em;}.cls-5{letter-spacing:-0.01em;}.cls-6{letter-spacing:0.01em;}.cls-7{letter-spacing:-0.01em;}.cls-8{letter-spacing:-0.03em;}.cls-9{letter-spacing:-0.05em;}.cls-10{letter-spacing:0.02em;}.cls-11{letter-spacing:-0.09em;}.cls-12{letter-spacing:-0.01em;}.cls-13{letter-spacing:-0.01em;}.cls-14{letter-spacing:0.02em;}.cls-15{letter-spacing:0em;}.cls-16{letter-spacing:-0.01em;}.cls-17{letter-spacing:-0.05em;}.cls-18{letter-spacing:-0.01em;}.cls-19{letter-spacing:-0.01em;}.cls-20{letter-spacing:-0.03em;}.cls-21{letter-spacing:0em;}.cls-22{fill:#231f20;}.cls-23{fill:none;stroke:#ed1c24;stroke-miterlimit:10;stroke-width:7px;}</style></defs><title>tablet1</title><g id="Calque_2" data-name="Calque 2"><rect class="cls-1" width="2732" height="2048"/><path class="cls-2" d="M114.26,91.07c-8.94,8.24-13.36,21.51-14.63,33.33a58.82,58.82,0,0,0,5.87,32.83c9.29,18.66,22.93,33.88,37.59,48.47,38.29,38.09,81.28,71.32,118,111a264.9,264.9,0,0,1,27.14,34.6A118.41,118.41,0,0,1,299.41,372c-1.15-2.81.86,2.55.84,2.47.76,2.2,1.44,4.44,2,6.7.43,1.69.76,3.4,1.12,5.1q.52,3.18.12.48.18,1.7.26,3.4c.58,9.18,7.69,18.07,17.63,17.63,8.63-.39,18.77-7.82,17.63-17.62-1.89-16.2-7.11-32.12-16.61-45.54-8-11.36-17.74-21.56-27.71-31.25a650.69,650.69,0,0,0-61.24-52c-21.06-15.93-42.79-31-63.22-47.73-16.82-13.79-34.36-27.93-47.57-45.37-7-9.19-14-19.09-16-30.69a53.44,53.44,0,0,1,1.54-23.13c2.11-7.47,6.07-13.72,10-20.32,1.5-2.53-1.89-5-4-3.07Z"/><path class="cls-2" d="M431.06,685c-20.13-10.86-48.83-3.4-64.48,12-14.94,14.73-25.07,32.67-34.16,51.36C308.29,798,290.83,850.82,264.18,899.24c-3.83,7-8.08,13.7-12.46,20.32q-2.83,4.28-5.8,8.47-1.49,2.1-3,4.17-1,1.39-2,2.76-1.81,2.38-.53.72a124.71,124.71,0,0,1-15.28,16c-1.23,1.08-2.48,2.16-3.79,3.16,2.41-1.84-2.7,1.77-3.19,2.08q-2.05,1.32-4.19,2.5c-.59.32-6.48,3.1-3.06,1.68-9.68,4-15.93,13.11-11.42,23.79,4.31,10.22,15.46,13,25,8.43,26.2-12.55,41.41-37.1,53.5-62.35A631.33,631.33,0,0,0,308.06,855c8.55-26.08,16-52.54,25.52-78.29,7.56-20.41,15.31-41.27,27.52-59.42,6.56-9.76,13.79-19.59,24.51-25,14.14-7.14,28.56-5.77,43.5-2.67,2.69.56,4.6-3.2,2-4.63Z"/><path class="cls-2" d="M573.76,1757.53c-5.26-20.7-28.52-36.8-49-38.87-19.8-2-39.77,2.31-58.66,7.73-54.21,15.55-105.88,39.12-160.56,53.16a266.68,266.68,0,0,1-44.49,7.63,150,150,0,0,1-22.74-.21c-5.33-.36,3,.73-2.2-.28-2.21-.43-4.42-.84-6.61-1.4q-2.44-.62-4.84-1.41-1.59-.52-3.15-1.12,2.44,1.09-.37-.19c-9.55-4.41-20.61-2-25,8.43s1.63,19.88,11.42,23.79c27.51,11,56.73,4.78,83.92-3.72,27-8.43,53.2-19.11,78.86-30.92,25.12-11.56,49.83-24,75.53-34.28,20.14-8,40.54-16,62.19-18.54,11.57-1.38,22.91-1.68,33.61,3.6,12.9,6.36,20.32,16.54,27.5,28.54a2.54,2.54,0,0,0,4.63-2Z"/><path class="cls-2" d="M285.33,1270.61c-2,21.12,14.5,44.55,33.19,53.13,16.94,7.77,35.4,10.84,53.82,12.24,59,4.47,118.48-1,177.43,5.18a237.78,237.78,0,0,1,45.17,9.11c3.42,1.06,6.71,2.39,10,3.68,4.76,1.83-2.83-1.48,1.79.73,1.67.8,3.34,1.58,5,2.44,3.06,1.61,5.9,3.5,8.82,5.34,4.19,2.64-2.21-2.14,1.49,1.08,1.56,1.36,3.1,2.73,4.57,4.19,6.56,6.49,18.46,7,24.93,0,6.14-6.69,7.36-18.39,0-24.93a102.42,102.42,0,0,0-36.21-20.57c-13-4.32-27.42-5.21-41-6.06-28.74-1.79-57.68-.7-86.35,1.71-29,2.43-57.9,5.93-87,6.9-21.58.72-43.16,1.14-64.29-3.76-11.14-2.58-21.55-6-29.78-14.35-10.27-10.4-13.86-22.83-16.58-36.74-.59-3-4.72-2-5,.67Z"/><path class="cls-2" d="M1005.73,133.95c2.38,20.63,22.12,39.92,41.74,45.07,19.08,5,39.38,3.57,58.65.88,57.16-8,112.79-25.63,170.26-31.61a271.73,271.73,0,0,1,48.38-1c1.54.12,3.08.26,4.61.46-3.34-.42,2,.39,2.67.5,3.47.6,6.92,1.24,10.33,2.14q2.38.63,4.73,1.38c.58.19,6.63,2.44,3.53,1.14a66,66,0,0,1,9.92,5.33c7.79,5,19.79,1.87,24.11-6.32,4.41-8.35,2.25-19.27-6.32-24.11a100.44,100.44,0,0,0-42.65-12.37c-13.72-.92-27.88,1.43-41.38,3.58-27.59,4.38-54.77,11.29-81.47,19.42-27.58,8.4-54.85,17.79-82.84,24.78q-20.42,5.1-41.16,8.65a28.13,28.13,0,0,1-3.8.48c-1.47.13-2.95.23-4.43.31q-7.17.42-14.36.31c-11.75-.2-22.65-1.58-32.61-8.31-11.85-8-17.74-19.27-23.18-32-1-2.27-5-1.16-4.72,1.28Z"/><path class="cls-2" d="M2480.51,238.29c-18.44,13.38-24.46,42.36-17.34,63.15,6.87,20.07,18.68,37,31.69,53.47,33.61,42.62,72.92,80.67,104.76,124.72a296.67,296.67,0,0,1,23.77,39.3c.74,1.45,1.43,2.91,2.14,4.37q1.17,2.65.34.67.63,1.55,1.21,3.11c1.4,3.77,2.75,7.57,3.83,11.44q.71,2.53,1.28,5.1c.14.62,1.19,7.17.83,4.05a70.1,70.1,0,0,1,.3,12c-.51,9.22,8.47,18,17.63,17.63,9.56-.43,17.61-7.74,17.63-17.62a98.93,98.93,0,0,0-12.16-46.82c-6.59-12.08-15.43-23.14-24.08-33.79a629.7,629.7,0,0,0-53.79-57.76c-19.6-18.75-39.93-36.77-58.73-56.35-15.52-16.16-30.33-31.68-41.16-50.41-5.92-10.25-11.51-21-11.42-33.14.11-15.69,7.53-27.7,16.74-39.71,1.53-2-1.47-4.91-3.46-3.46Z"/><path class="cls-2" d="M1196.21,888.74c-12.51-19.1-41.31-26.28-62.39-20.16-19.93,5.78-37.18,16.52-53.9,28.47-44.51,31.83-84.74,69.48-130.6,99.46-13,8.48-26.77,15.54-40.77,22.13-4.82,2.27,2.67-.88-2.18.94-2.07.78-4.15,1.53-6.26,2.21-3.84,1.22-7.7,2.39-11.63,3.29-1.71.39-3.44.71-5.16,1q-3.15.5-.65.12-1.73.19-3.47.3a72.81,72.81,0,0,1-12.06-.27c-9.2-.94-18,8.78-17.62,17.63a18,18,0,0,0,17.63,17.63c30.47,1.48,56.3-13.83,79.88-31.3a665.77,665.77,0,0,0,62.64-53c19.34-18.41,38-37.56,58.13-55.14,16.38-14.32,33.1-28.82,52.53-38.85,10.51-5.43,21.53-10.42,33.62-9.74,15.38.87,26.93,8.66,38.3,18.26,2.06,1.74,5.66-.5,4-3.07Z"/><path class="cls-2" d="M1339.45,1875.69c2.38,20.63,22.12,39.92,41.74,45.07,19.08,5,39.38,3.57,58.65.88,57.16-8,112.79-25.63,170.26-31.61a271.73,271.73,0,0,1,48.38-1c1.54.12,3.08.26,4.61.46-3.34-.42,2,.39,2.67.5,3.47.6,6.92,1.24,10.33,2.14q2.38.63,4.73,1.38c.58.19,6.63,2.44,3.53,1.14a66,66,0,0,1,9.92,5.33c7.79,5,19.79,1.87,24.11-6.32,4.41-8.35,2.25-19.27-6.32-24.11a100.44,100.44,0,0,0-42.65-12.37c-13.72-.92-27.88,1.43-41.38,3.58-27.59,4.38-54.77,11.29-81.47,19.42-27.58,8.4-54.85,17.79-82.84,24.78q-20.42,5.1-41.16,8.65a28.13,28.13,0,0,1-3.8.48c-1.47.13-2.95.23-4.43.31q-7.17.42-14.36.31c-11.75-.2-22.65-1.58-32.61-8.31-11.85-8-17.74-19.27-23.18-32-1-2.27-5-1.16-4.72,1.28Z"/><path class="cls-2" d="M989.53,268.56c-21,1-41.44,19.94-47.76,39.34-5.94,18.22-6,38.2-4.62,57.09,4.29,58.34,18.46,115.77,20.4,174.32.27,8.06.1,16.16-.28,24.21q-.3,6.55-.87,13.08-.16,1.87-.35,3.74t-.4,3.74q.39-2.62,0,.24a136.41,136.41,0,0,1-4.89,20.13q-.78,2.34-1.69,4.63c1.19-3-1.36,2.79-1.65,3.34a72.23,72.23,0,0,1-6,9.56c-5.48,7.46-1.49,20,6.32,24.11,8.81,4.66,18.71,1.92,24.11-6.32,15.78-24.06,16.51-52.31,13.93-80a639.62,639.62,0,0,0-14.55-86.19c-6.57-28-14.11-55.85-19.2-84.21-3.73-20.77-7-41.5-5.33-62.62.9-11.4,2.87-22.36,9.92-31.69,8.7-11.52,20.37-16.9,33.59-21.55,2.55-.9,2.34-5.12-.67-5Z"/><path class="cls-2" d="M66.9,597.35c3.29,20.54,24.76,39,44.57,42.81,19.56,3.79,39.6,1.53,59-2.11,56.87-10.69,111.83-30.63,169.15-39.16a257.9,257.9,0,0,1,45.84-2.8c3.12.1,6.24.36,9.34.72.29,0,5.55.78,2,.23,2.15.33,4.29.7,6.41,1.16,3.76.81,7.35,2,11,3.14,4.85,1.49-2.65-1.49,1.86.72,1.92.94,3.81,1.92,5.67,3,8,4.62,19.65,2.12,24.11-6.32,4.25-8,2.45-19.65-6.32-24.11a100.53,100.53,0,0,0-43.1-10.86c-13.67-.31-27.62,2.45-41,5.16-27.6,5.62-54.68,13.8-81.21,23.18-26.83,9.48-53.31,19.93-80.58,28.08-21.1,6.31-42.3,12.35-64.42,13-11.69.32-22.8-.52-33-6.78-12.21-7.49-18.61-18.41-24.64-31-1.34-2.79-5-.66-4.63,2Z"/><path class="cls-2" d="M536.78,404.35c20.51,10,48.89,1.61,63.92-14.46,14.38-15.37,23.78-33.67,32.13-52.78C655,286.31,670.16,232.3,695.34,182.8a318.73,318.73,0,0,1,24-39.33c2.8-4-2,2.13,1.24-1.58,1.38-1.59,2.74-3.17,4.15-4.73,2.55-2.81,5.13-5.57,7.92-8.15,1.21-1.11,2.46-2.17,3.71-3.24q2.36-1.9.4-.33,1.31-1,2.67-1.87a72.19,72.19,0,0,1,9.85-5.49c8.39-3.88,11.14-16.64,6.32-24.11a18,18,0,0,0-24.11-6.32c-25.9,13.72-40.16,38.53-51.35,64.5a630,630,0,0,0-27.36,77.75c-7.39,26.09-13.68,52.52-22.06,78.32-6.9,21.25-14,42.94-25.85,62-6,9.67-12.64,19.33-22.8,25-13.86,7.74-28.28,7-43.37,4.52-2.6-.43-4.74,3.26-2,4.63Z"/><path class="cls-2" d="M1806.26,1397.42c-8.94,8.24-13.36,21.51-14.63,33.33a58.82,58.82,0,0,0,5.87,32.83c9.29,18.66,22.93,33.88,37.59,48.47,38.29,38.09,81.28,71.32,118,111a264.9,264.9,0,0,1,27.14,34.6,118.41,118.41,0,0,1,11.17,20.66c-1.15-2.81.86,2.55.84,2.47.76,2.2,1.44,4.44,2,6.7.43,1.69.76,3.4,1.12,5.1q.52,3.18.12.48.18,1.7.26,3.4c.58,9.18,7.69,18.07,17.63,17.63,8.63-.39,18.77-7.82,17.63-17.62-1.89-16.2-7.11-32.12-16.61-45.54-8-11.36-17.74-21.56-27.71-31.25a650.69,650.69,0,0,0-61.24-52c-21.06-15.93-42.79-31-63.22-47.73-16.82-13.79-34.36-27.93-47.57-45.37-7-9.19-14-19.09-16-30.69a53.44,53.44,0,0,1,1.54-23.13c2.11-7.47,6.07-13.72,10-20.32,1.5-2.53-1.89-5-4-3.07Z"/><path class="cls-2" d="M2439.52,53.23c-20.13-10.86-48.83-3.4-64.48,12C2360.1,80,2350,97.94,2340.88,116.63c-24.13,49.62-41.59,102.45-68.24,150.86-3.83,7-8.08,13.7-12.46,20.32q-2.83,4.28-5.8,8.47-1.49,2.1-3,4.17-1,1.39-2,2.76-1.81,2.38-.53.72a124.71,124.71,0,0,1-15.28,16c-1.23,1.08-2.48,2.16-3.79,3.16,2.41-1.84-2.7,1.77-3.19,2.08q-2.05,1.32-4.19,2.5c-.59.32-6.48,3.1-3.06,1.68-9.68,4-15.93,13.11-11.42,23.79,4.31,10.22,15.46,13,25,8.43,26.2-12.55,41.41-37.1,53.5-62.35a631.33,631.33,0,0,0,30.14-75.94c8.55-26.08,16-52.54,25.52-78.29,7.56-20.41,15.31-41.27,27.52-59.42,6.56-9.76,13.79-19.59,24.51-25,14.14-7.14,28.56-5.77,43.5-2.67,2.69.56,4.6-3.2,2-4.63Z"/><path class="cls-2" d="M2563.32,1617c6.86-10.45,7.83-24.89,5.93-36.95a58.66,58.66,0,0,0-13.51-29.37c-13.68-16-30.78-27.52-48.73-38.2-46.92-27.92-97.35-49.88-142.92-80.11a260.94,260.94,0,0,1-34-26.88,105.33,105.33,0,0,1-7.75-7.94c-1.09-1.25-2.17-2.52-3.23-3.78q-1.09-1.27-2.15-2.58,1.35,1.8-.43-.61a97.39,97.39,0,0,1-6.29-10c-.79-1.48-1.55-3-2.23-4.53,1.31,3-1-3-1.16-3.59-2.78-8.78-12.38-15.32-21.68-12.31-8.41,2.72-15.79,12.44-12.31,21.68,5.37,14.24,13.74,27.55,25,37.92,10.23,9.44,22.34,17,34.29,24.11a615.77,615.77,0,0,0,72.49,36.1c24.57,10.46,49.59,19.93,73.75,31.31,20,9.42,40.82,19,58.12,32.95,9,7.25,18.37,15.22,23,26.08a54,54,0,0,1,4,22c-.15,8-2.53,15.21-4.79,22.79-.85,2.84,3.09,4.29,4.63,2Z"/><path class="cls-2" d="M1404.44,1553.09c6.86-10.45,7.83-24.89,5.93-36.95a58.66,58.66,0,0,0-13.51-29.37c-13.68-16-30.78-27.52-48.73-38.2-46.92-27.92-97.35-49.88-142.92-80.11a260.94,260.94,0,0,1-34-26.88,105.33,105.33,0,0,1-7.75-7.94c-1.09-1.25-2.17-2.52-3.23-3.78q-1.09-1.27-2.15-2.58,1.35,1.8-.43-.61a97.39,97.39,0,0,1-6.29-10c-.79-1.48-1.55-3-2.23-4.53,1.31,3-1-3-1.16-3.59-2.78-8.78-12.38-15.32-21.68-12.31-8.41,2.72-15.79,12.44-12.31,21.68,5.37,14.24,13.74,27.55,25,37.92,10.23,9.44,22.34,17,34.29,24.11a615.77,615.77,0,0,0,72.49,36.1c24.57,10.46,49.59,19.93,73.75,31.31,20,9.42,40.82,19,58.12,32.95,9,7.25,18.37,15.22,23,26.08a54,54,0,0,1,4,22c-.15,8-2.53,15.21-4.79,22.79-.85,2.84,3.09,4.29,4.63,2Z"/><path class="cls-2" d="M1992.18,604.48c20.19-7.92,33.7-33.19,32.8-54.27-.88-20.49-7.7-39.67-15.71-58.3-22-51.16-51.52-98.91-71.8-150.84a296.57,296.57,0,0,1-13.14-43.95c-2.89-13.12-3.61-28.93.51-41.87,2.8-8.79-3.28-19.62-12.31-21.68-9.21-2.1-19.2,2.76-21.68,12.31a99.19,99.19,0,0,0-.47,46.9c3.19,13.73,9.14,27,14.95,39.82a634.77,634.77,0,0,0,39,71.88c14.22,22.91,29.24,45.33,42.39,68.89,6.68,12,13,24.1,18.78,36.53a143.22,143.22,0,0,1,8.28,23.62c3.08,11.71,5.17,23.26,1.31,35.07-4.55,13.93-14.17,22.92-25.38,31.67-2,1.53.17,5.13,2.46,4.23Z"/><path class="cls-2" d="M688.77,1882.87c13.59,18.26,42.61,24,63.32,16.63,20-7.11,36.74-19.09,53.08-32.29,42.19-34.1,79.73-73.87,123.37-106.21a296.27,296.27,0,0,1,39-24.23A89.74,89.74,0,0,1,987,1729a76.71,76.71,0,0,1,12-2.65c-3.5.44,2.14-.06,2.31-.07,2.29-.12,4.57-.09,6.86,0,9.22.39,18-8.39,17.63-17.62-.42-9.46-7.75-17.73-17.63-17.62a99,99,0,0,0-46.71,12.62c-12,6.73-23,15.68-33.55,24.46a630.52,630.52,0,0,0-57.14,54.5c-18.53,19.84-36.31,40.39-55.67,59.43-16,15.71-31.32,30.73-49.93,41.78-10.17,6-20.89,11.79-33,11.85-15.71.08-27.79-7.18-39.92-16.25-2-1.49-4.94,1.47-3.46,3.46Z"/><path class="cls-2" d="M472.08,1073.11c17.25,15.87,47.35,15.22,66.53,3.61,17.84-10.79,31.84-25.46,45.17-41.28,35-41.56,64.73-87.53,101.66-127.52a291.75,291.75,0,0,1,33.93-31.21c-2.15,1.69,2-1.5,2-1.43q2.71-1.92,5.54-3.67c3.42-2.12,6.89-4.2,10.48-6,1.56-.8,3.14-1.58,4.76-2.27-2.33,1,3.49-1.21,4.07-1.39a72.9,72.9,0,0,1,11.76-2.69c9.15-1.34,15-13.4,12.31-21.68-3.11-9.61-12-14.26-21.68-12.31-29.68,6-50.94,27.2-69.39,49.71a662.29,662.29,0,0,0-47.49,66.17c-14.16,22.41-27.47,45.38-42.53,67.2-12.35,17.89-25,36.17-41.26,50.73-8.76,7.83-18.19,15.6-29.91,18.2-15.5,3.44-29.1-1.42-42.82-8.11-2.45-1.19-5.31,1.91-3.07,4Z"/><path class="cls-2" d="M2468,1843.28c-8-20.17-33.25-33.63-54.34-32.68-20.49.92-39.65,7.79-58.26,15.83-51.11,22.1-98.78,51.75-150.66,72.14a296.5,296.5,0,0,1-43.91,13.24c-13.11,2.92-28.92,3.7-41.86-.4-8.79-2.78-19.62,3.27-21.68,12.31s2.76,19.22,12.31,21.68a99.2,99.2,0,0,0,46.9.38c13.73-3.22,27-9.19,39.8-15a634.93,634.93,0,0,0,71.8-39.17c22.88-14.27,45.27-29.34,68.8-42.55,11.94-6.7,24.07-13.09,36.49-18.86a143.19,143.19,0,0,1,23.6-8.34c11.7-3.1,23.25-5.23,35.06-1.4,13.94,4.52,23,14.11,31.73,25.31,1.53,2,5.14-.17,4.23-2.46Z"/><path class="cls-2" d="M1671.66,455.63c-8-20.17-33.25-33.63-54.34-32.68-20.49.92-39.65,7.79-58.26,15.83-51.11,22.1-98.78,51.75-150.66,72.14a296.5,296.5,0,0,1-43.91,13.24c-13.11,2.92-28.92,3.7-41.86-.4-8.79-2.78-19.62,3.27-21.68,12.31s2.76,19.22,12.31,21.68a99.2,99.2,0,0,0,46.9.38c13.73-3.22,27-9.19,39.8-15a634.93,634.93,0,0,0,71.8-39.17c22.88-14.27,45.27-29.34,68.8-42.55,11.94-6.7,24.07-13.09,36.49-18.86a143.19,143.19,0,0,1,23.6-8.34c11.7-3.1,23.25-5.23,35.06-1.4,13.94,4.52,23,14.11,31.73,25.31,1.53,2,5.14-.17,4.23-2.46Z"/><text class="cls-3" transform="translate(1388.44 801.26)">En<tspan class="cls-4" x="56.81" y="0">t</tspan><tspan class="cls-5" x="72.26" y="0">r</tspan><tspan x="88.27" y="0">e dans le monde m</tspan><tspan class="cls-6" x="433.87" y="0">y</tspan><tspan x="454.47" y="0">sté</tspan><tspan class="cls-6" x="506.68" y="0">r</tspan><tspan x="523.61" y="0">ieux de ce site </tspan><tspan class="cls-7" x="786.91" y="0">w</tspan><tspan x="817.82" y="0">e</tspan><tspan class="cls-8" x="837.78" y="0">b</tspan><tspan class="cls-9" x="860.28" y="0">..</tspan><tspan class="cls-8" x="880.33" y="0">.</tspan><tspan x="891.28" y="0"> </tspan><tspan class="cls-10" x="0" y="55.2">C</tspan><tspan class="cls-11" x="35.42" y="55.2">’</tspan><tspan x="40.29" y="55.2">est une p</tspan><tspan class="cls-12" x="205.29" y="55.2">r</tspan><tspan x="221.3" y="55.2">omess</tspan><tspan class="cls-13" x="336.3" y="55.2">e</tspan><tspan class="cls-8" x="355.9" y="55.2">,</tspan><tspan x="366.84" y="55.2"> </tspan><tspan class="cls-4" x="376.5" y="55.2">t</tspan><tspan x="391.96" y="55.2">u en so</tspan><tspan class="cls-14" x="521.17" y="55.2">r</tspan><tspan class="cls-4" x="538.46" y="55.2">t</tspan><tspan x="553.92" y="55.2">i</tspan><tspan class="cls-4" x="566.38" y="55.2">r</tspan><tspan x="583.08" y="55.2">as </tspan><tspan class="cls-4" x="630.14" y="55.2">c</tspan><tspan x="649.6" y="55.2">han</tspan><tspan class="cls-15" x="720.3" y="55.2">g</tspan><tspan class="cls-16" x="742.79" y="55.2">é</tspan><tspan class="cls-8" x="762.39" y="55.2">.</tspan><tspan x="773.34" y="55.2"> </tspan></text><text class="cls-3" transform="translate(1386.44 1182.25)">Enter in the m<tspan class="cls-6" x="272.96" y="0">y</tspan><tspan x="293.57" y="0">ste</tspan><tspan class="cls-6" x="345.78" y="0">r</tspan><tspan x="362.7" y="0">ious </tspan><tspan class="cls-7" x="449.5" y="0">w</tspan><tspan x="480.42" y="0">o</tspan><tspan class="cls-10" x="503.88" y="0">r</tspan><tspan x="521.26" y="0">ld of this </tspan><tspan class="cls-7" x="694.26" y="0">w</tspan><tspan x="725.18" y="0">ebsit</tspan><tspan class="cls-16" x="813.72" y="0">e</tspan><tspan class="cls-17" x="833.32" y="0">..</tspan><tspan class="cls-8" x="853.38" y="0">.</tspan><tspan x="0" y="55.2">It is a p</tspan><tspan class="cls-5" x="135.97" y="55.2">r</tspan><tspan x="151.98" y="55.2">omess</tspan><tspan class="cls-8" x="266.98" y="55.2">,</tspan><tspan x="277.93" y="55.2"> </tspan><tspan class="cls-18" x="287.58" y="55.2">y</tspan><tspan x="307.18" y="55.2">ou wi</tspan><tspan class="cls-6" x="408.15" y="55.2">l</tspan><tspan x="420.57" y="55.2">l le</tspan><tspan class="cls-4" x="474.11" y="55.2">a</tspan><tspan class="cls-19" x="494.72" y="55.2">v</tspan><tspan x="515.33" y="55.2">e it </tspan><tspan class="cls-4" x="582.3" y="55.2">c</tspan><tspan x="601.76" y="55.2">han</tspan><tspan class="cls-15" x="672.46" y="55.2">g</tspan><tspan x="694.95" y="55.2">ed</tspan><tspan class="cls-20" x="739.25" y="55.2">.</tspan><tspan class="cls-21" x="750.2" y="55.2"> </tspan></text><path class="cls-2" d="M1282.14,982.18c21.92,19.74,54,28.2,81.92,36.23a780.79,780.79,0,0,0,102.29,21.8c48.47,7.11,97.85,10.84,146.79,12.91,70.53,3,141.31,2.12,211.88,1.47,73-.67,146.29,1.79,219.3,3.19,86.37,1.66,172.9,2.16,259,10.3l-18.48-1.77c42.7,4.1,85.42,8.56,127.76,15.49,41.68,6.82,82.41,19.34,124.7,20.78,48.62,1.66,96.84-18.55,105.65-65.42,4.26-22.67,2.2-47.85-11.42-67.31-12.45-17.79-32.18-32.54-54-38.35-46-12.25-73.52-13.69-149.28-11.47-45.1,1.33-90.1,5.63-135,10.18-91.79,9.29-183.57,17.51-275.06,29.72-158.73,21.18-317.69,44.17-478.19,44.67-40.49.13-80.92-.47-120.87-7.68a603.83,603.83,0,0,1-69.3-16.49c-19.11-5.84-37.17-14.11-56.22-19.8C1281.33,957,1273.07,974,1282.14,982.18Z"/><line class="cls-22" x1="2353.51" y1="1006.5" x2="2566.51" y2="1006.5"/><line class="cls-23" x1="2353.51" y1="1006.5" x2="2558.92" y2="1006.5"/><polygon class="cls-1" points="2535.72 1035.13 2530.95 1030.01 2556.23 1006.51 2530.95 983.01 2535.72 977.88 2566.51 1006.51 2535.72 1035.13"/></g></svg>