<svg xmlns="http://www.w3.org/2000/svg" xmlns:xlink="http://www.w3.org/1999/xlink" viewBox="0 0 2732 2048"><defs><style>.cls-1{fill:aqua;}</style></defs><title>tablet3</title><g id="Calque_3" data-name="Calque 3"><image width="1280" height="800" transform="translate(14 110) scale(2.12 2.28)" xlink:href="institutvideo.png"/><path class="cls-1" d="M0,0V2048H2732V0ZM2003.91,1059.37,2142.11,785l168.49,256.86Zm485,268.25-256.51,169L2214.24,1190ZM709.77,850.87,630.26,1147.6,413,930.38Zm-84-108.17L863.2,547.79l50.07,303.09Zm224.65,152,153.6,266H696.8Zm84.06-273.13h307.19l-153.6,266Zm302.36,172L1352,1078.33l-304.22-42.64Zm58-118.74,297.53,76.46-215,219.44Zm102.26,448.47-173.81,253.3L1090.8,1099.41ZM1485.34,1259v307.19l-266-153.6Zm-27.44-92.45,50.17-303.07,237.38,195Zm228.58-321.29,296.73-79.51-79.51,296.73Zm186.07,381.34-215,219.44L1575,1150.13Zm-15.83-90.68h307.19l-153.6,266Zm449-571.06,297.53,76.46-215,219.44Zm226.58-335-215,219.44L2234.8,153.37ZM2178.86,741.28,1904.22,603.66l256.51-169ZM2070.31,345.06l-256.51,169-18.14-306.66ZM1849.69,777.61l-297.53-76.46,215-219.44Zm-480-673.23,237.38,195L1319.56,407.45Zm240,292.27-103,289.4L1307.62,452.11Zm-293.22,149.6-304.22-42.64,189-242.14ZM1019.81,114.67l-27.38,306L741.14,243.95ZM882,433.74l-256.51,169L607.37,296.11ZM378.73,89.64,521.4,361.69,214.46,349.22ZM516.64,426,396.83,708.91,211.77,463.71ZM279.09,839.66l115.19,284.78L90.06,1081.8Zm-178,618,306.26,23.88L233.6,1734.84ZM580.6,1864.12,363.39,1646.91l296.73-79.51ZM442.47,1523.61V1216.42l266,153.6ZM711.79,1758.1l103-289.4,199.11,233.93Zm87.9-483.65,296.73-79.51-79.51,296.73Zm313.05,161.69L1364,1612.84l-278.67,129.28ZM1474.13,1918,1216,1751.49l273.27-140.33Zm65.27-80.08,27.38-306,251.29,176.69Zm378.84-175.74L1667,1485.46l278.67-129.28Zm108.4,125.37-18.14-306.66,274.64,137.62Zm267.25-17L2492.37,1536l103.81,289.12Zm68.29-572.77,138.2-274.35,168.49,256.86Z"/></g></svg>