<svg id="Calque_1" data-name="Calque 1" xmlns="http://www.w3.org/2000/svg" viewBox="0 0 15 653.11"><defs><style>.cls-1{fill:none;stroke:#000;stroke-miterlimit:10;stroke-width:0.5px;}</style></defs><title>lignedeprogression</title><rect class="cls-1" x="0.25" y="0.25" width="14.5" height="37.61"/><rect class="cls-1" x="0.25" y="41.21" width="14.5" height="37.61"/><rect class="cls-1" x="0.25" y="82.18" width="14.5" height="37.61"/><rect class="cls-1" x="0.25" y="123.14" width="14.5" height="37.61"/><rect class="cls-1" x="0.25" y="287.25" width="14.5" height="37.61"/><rect class="cls-1" x="0.25" y="164.21" width="14.5" height="37.61"/><rect class="cls-1" x="0.25" y="205.18" width="14.5" height="37.61"/><rect class="cls-1" x="0.25" y="246.14" width="14.5" height="37.61"/><rect class="cls-1" x="0.25" y="328.25" width="14.5" height="37.61"/><rect class="cls-1" x="0.25" y="369.21" width="14.5" height="37.61"/><rect class="cls-1" x="0.25" y="410.18" width="14.5" height="37.61"/><rect class="cls-1" x="0.25" y="451.14" width="14.5" height="37.61"/><rect class="cls-1" x="0.25" y="615.25" width="14.5" height="37.61"/><rect class="cls-1" x="0.25" y="492.21" width="14.5" height="37.61"/><rect class="cls-1" x="0.25" y="533.18" width="14.5" height="37.61"/><rect class="cls-1" x="0.25" y="574.14" width="14.5" height="37.61"/></svg>