<?xml version="1.0" encoding="utf-8"?>
<!-- Generator: Adobe Illustrator 21.0.0, SVG Export Plug-In . SVG Version: 6.00 Build 0)  -->
<svg version="1.1" id="Calque_1" xmlns="http://www.w3.org/2000/svg" xmlns:xlink="http://www.w3.org/1999/xlink" x="0px" y="0px"
	 viewBox="0 0 1366 768" style="enable-background:new 0 0 1366 768;" xml:space="preserve">
<style type="text/css">
	.st0{fill:none;}
	.st1{font-family:'Six Caps', sans-serif;}
	.st2{font-size:32px;}
</style>
<rect x="582.9" y="58" class="st0" width="684.3" height="222"/>
<text transform="matrix(1 0 0 1 582.9404 80.748)"><tspan x="0" y="0" class="st1 st2">M</tspan><tspan x="25.7" y="0" class="st1 st2"> </tspan><tspan x="32.9" y="0" class="st1 st2">M</tspan><tspan x="58.7" y="0" class="st1 st2"> </tspan><tspan x="65.9" y="0" class="st1 st2">M</tspan><tspan x="91.6" y="0" class="st1 st2"> </tspan><tspan x="98.8" y="0" class="st1 st2">M</tspan><tspan x="124.5" y="0" class="st1 st2"> </tspan><tspan x="131.7" y="0" class="st1 st2">M</tspan><tspan x="157.4" y="0" class="st1 st2"> </tspan><tspan x="164.6" y="0" class="st1 st2">M</tspan><tspan x="190.4" y="0" class="st1 st2"> </tspan><tspan x="197.6" y="0" class="st1 st2">M</tspan><tspan x="223.3" y="0" class="st1 st2"> </tspan><tspan x="230.5" y="0" class="st1 st2">M</tspan><tspan x="256.2" y="0" class="st1 st2"> </tspan><tspan x="263.4" y="0" class="st1 st2">M</tspan><tspan x="289.2" y="0" class="st1 st2"> </tspan><tspan x="296.4" y="0" class="st1 st2">M</tspan><tspan x="322.1" y="0" class="st1 st2"> </tspan><tspan x="329.3" y="0" class="st1 st2">M</tspan><tspan x="355" y="0" class="st1 st2"> </tspan><tspan x="362.2" y="0" class="st1 st2">M</tspan><tspan x="387.9" y="0" class="st1 st2"> </tspan><tspan x="395.1" y="0" class="st1 st2">M</tspan><tspan x="420.9" y="0" class="st1 st2"> </tspan><tspan x="428.1" y="0" class="st1 st2">M</tspan><tspan x="453.8" y="0" class="st1 st2"> </tspan><tspan x="461" y="0" class="st1 st2">M</tspan><tspan x="486.7" y="0" class="st1 st2"> </tspan><tspan x="493.9" y="0" class="st1 st2">M</tspan><tspan x="519.7" y="0" class="st1 st2"> </tspan><tspan x="526.9" y="0" class="st1 st2">M</tspan><tspan x="552.6" y="0" class="st1 st2"> </tspan><tspan x="559.8" y="0" class="st1 st2">M</tspan><tspan x="585.5" y="0" class="st1 st2"> </tspan><tspan x="592.7" y="0" class="st1 st2">M</tspan><tspan x="618.4" y="0" class="st1 st2"> </tspan><tspan x="625.6" y="0" class="st1 st2">M</tspan><tspan x="651.4" y="0" class="st1 st2"> </tspan><tspan x="658.6" y="0" class="st1 st2">M </tspan><tspan x="0" y="38.4" class="st1 st2">M</tspan><tspan x="25.7" y="38.4" class="st1 st2"> </tspan><tspan x="32.9" y="38.4" class="st1 st2">M</tspan><tspan x="58.7" y="38.4" class="st1 st2"> </tspan><tspan x="65.9" y="38.4" class="st1 st2">M</tspan><tspan x="91.6" y="38.4" class="st1 st2"> </tspan><tspan x="98.8" y="38.4" class="st1 st2">M</tspan><tspan x="124.5" y="38.4" class="st1 st2"> </tspan><tspan x="131.7" y="38.4" class="st1 st2">M</tspan><tspan x="157.4" y="38.4" class="st1 st2"> </tspan><tspan x="164.6" y="38.4" class="st1 st2">M</tspan><tspan x="190.4" y="38.4" class="st1 st2"> </tspan><tspan x="197.6" y="38.4" class="st1 st2">M</tspan><tspan x="223.3" y="38.4" class="st1 st2"> </tspan><tspan x="230.5" y="38.4" class="st1 st2">M</tspan><tspan x="256.2" y="38.4" class="st1 st2"> </tspan><tspan x="263.4" y="38.4" class="st1 st2">M</tspan><tspan x="289.2" y="38.4" class="st1 st2"> </tspan><tspan x="296.4" y="38.4" class="st1 st2">M</tspan><tspan x="322.1" y="38.4" class="st1 st2"> </tspan><tspan x="329.3" y="38.4" class="st1 st2">M</tspan><tspan x="355" y="38.4" class="st1 st2"> </tspan><tspan x="362.2" y="38.4" class="st1 st2">M</tspan><tspan x="387.9" y="38.4" class="st1 st2"> </tspan><tspan x="395.1" y="38.4" class="st1 st2">M</tspan><tspan x="420.9" y="38.4" class="st1 st2"> </tspan><tspan x="428.1" y="38.4" class="st1 st2">M</tspan><tspan x="453.8" y="38.4" class="st1 st2"> </tspan><tspan x="461" y="38.4" class="st1 st2">M</tspan><tspan x="486.7" y="38.4" class="st1 st2"> </tspan><tspan x="493.9" y="38.4" class="st1 st2">M</tspan><tspan x="519.7" y="38.4" class="st1 st2"> </tspan><tspan x="526.9" y="38.4" class="st1 st2">M</tspan><tspan x="552.6" y="38.4" class="st1 st2"> </tspan><tspan x="559.8" y="38.4" class="st1 st2">M</tspan><tspan x="585.5" y="38.4" class="st1 st2"> </tspan><tspan x="592.7" y="38.4" class="st1 st2">M</tspan><tspan x="618.4" y="38.4" class="st1 st2"> </tspan><tspan x="625.6" y="38.4" class="st1 st2">M</tspan><tspan x="651.4" y="38.4" class="st1 st2"> </tspan><tspan x="658.6" y="38.4" class="st1 st2">M </tspan><tspan x="0" y="76.8" class="st1 st2">M</tspan><tspan x="25.7" y="76.8" class="st1 st2"> </tspan><tspan x="32.9" y="76.8" class="st1 st2">M</tspan><tspan x="58.7" y="76.8" class="st1 st2"> </tspan><tspan x="65.9" y="76.8" class="st1 st2">M</tspan><tspan x="91.6" y="76.8" class="st1 st2"> </tspan><tspan x="98.8" y="76.8" class="st1 st2">M</tspan><tspan x="124.5" y="76.8" class="st1 st2"> </tspan><tspan x="131.7" y="76.8" class="st1 st2">M</tspan><tspan x="157.4" y="76.8" class="st1 st2"> </tspan><tspan x="164.6" y="76.8" class="st1 st2">M</tspan><tspan x="190.4" y="76.8" class="st1 st2"> </tspan><tspan x="197.6" y="76.8" class="st1 st2">M</tspan><tspan x="223.3" y="76.8" class="st1 st2"> </tspan><tspan x="230.5" y="76.8" class="st1 st2">M</tspan><tspan x="256.2" y="76.8" class="st1 st2"> </tspan><tspan x="263.4" y="76.8" class="st1 st2">M</tspan><tspan x="289.2" y="76.8" class="st1 st2"> </tspan><tspan x="296.4" y="76.8" class="st1 st2">M</tspan><tspan x="322.1" y="76.8" class="st1 st2"> </tspan><tspan x="329.3" y="76.8" class="st1 st2">M</tspan><tspan x="355" y="76.8" class="st1 st2"> </tspan><tspan x="362.2" y="76.8" class="st1 st2">M</tspan><tspan x="387.9" y="76.8" class="st1 st2"> </tspan><tspan x="395.1" y="76.8" class="st1 st2">M</tspan><tspan x="420.9" y="76.8" class="st1 st2"> </tspan><tspan x="428.1" y="76.8" class="st1 st2">M</tspan><tspan x="453.8" y="76.8" class="st1 st2"> </tspan><tspan x="461" y="76.8" class="st1 st2">M</tspan><tspan x="486.7" y="76.8" class="st1 st2"> </tspan><tspan x="493.9" y="76.8" class="st1 st2">M</tspan><tspan x="519.7" y="76.8" class="st1 st2"> </tspan><tspan x="526.9" y="76.8" class="st1 st2">M</tspan><tspan x="552.6" y="76.8" class="st1 st2"> </tspan><tspan x="559.8" y="76.8" class="st1 st2">M</tspan><tspan x="585.5" y="76.8" class="st1 st2"> </tspan><tspan x="592.7" y="76.8" class="st1 st2">M</tspan><tspan x="618.4" y="76.8" class="st1 st2"> </tspan><tspan x="625.6" y="76.8" class="st1 st2">M</tspan><tspan x="651.4" y="76.8" class="st1 st2"> </tspan><tspan x="658.6" y="76.8" class="st1 st2">M </tspan><tspan x="0" y="115.2" class="st1 st2">M</tspan><tspan x="25.7" y="115.2" class="st1 st2"> </tspan><tspan x="32.9" y="115.2" class="st1 st2">M</tspan><tspan x="58.7" y="115.2" class="st1 st2"> </tspan><tspan x="65.9" y="115.2" class="st1 st2">M</tspan><tspan x="91.6" y="115.2" class="st1 st2"> </tspan><tspan x="98.8" y="115.2" class="st1 st2">M</tspan><tspan x="124.5" y="115.2" class="st1 st2"> </tspan><tspan x="131.7" y="115.2" class="st1 st2">M</tspan><tspan x="157.4" y="115.2" class="st1 st2"> </tspan><tspan x="164.6" y="115.2" class="st1 st2">M</tspan><tspan x="190.4" y="115.2" class="st1 st2"> </tspan><tspan x="197.6" y="115.2" class="st1 st2">M</tspan><tspan x="223.3" y="115.2" class="st1 st2"> </tspan><tspan x="230.5" y="115.2" class="st1 st2">M</tspan><tspan x="256.2" y="115.2" class="st1 st2"> </tspan><tspan x="263.4" y="115.2" class="st1 st2">M</tspan><tspan x="289.2" y="115.2" class="st1 st2"> </tspan><tspan x="296.4" y="115.2" class="st1 st2">M</tspan><tspan x="322.1" y="115.2" class="st1 st2"> </tspan><tspan x="329.3" y="115.2" class="st1 st2">M</tspan><tspan x="355" y="115.2" class="st1 st2"> </tspan><tspan x="362.2" y="115.2" class="st1 st2">M</tspan><tspan x="387.9" y="115.2" class="st1 st2"> </tspan><tspan x="395.1" y="115.2" class="st1 st2">M</tspan><tspan x="420.9" y="115.2" class="st1 st2"> </tspan><tspan x="428.1" y="115.2" class="st1 st2">M</tspan><tspan x="453.8" y="115.2" class="st1 st2"> </tspan><tspan x="461" y="115.2" class="st1 st2">M</tspan><tspan x="486.7" y="115.2" class="st1 st2"> </tspan><tspan x="493.9" y="115.2" class="st1 st2">M</tspan><tspan x="519.7" y="115.2" class="st1 st2"> </tspan><tspan x="526.9" y="115.2" class="st1 st2">M</tspan><tspan x="552.6" y="115.2" class="st1 st2"> </tspan><tspan x="559.8" y="115.2" class="st1 st2">M</tspan><tspan x="585.5" y="115.2" class="st1 st2"> </tspan><tspan x="592.7" y="115.2" class="st1 st2">M</tspan><tspan x="618.4" y="115.2" class="st1 st2"> </tspan><tspan x="625.6" y="115.2" class="st1 st2">M</tspan><tspan x="651.4" y="115.2" class="st1 st2"> </tspan><tspan x="658.6" y="115.2" class="st1 st2">M </tspan><tspan x="0" y="153.6" class="st1 st2">M</tspan><tspan x="25.7" y="153.6" class="st1 st2"> </tspan><tspan x="32.9" y="153.6" class="st1 st2">M</tspan><tspan x="58.7" y="153.6" class="st1 st2"> </tspan><tspan x="65.9" y="153.6" class="st1 st2">M</tspan><tspan x="91.6" y="153.6" class="st1 st2"> </tspan><tspan x="98.8" y="153.6" class="st1 st2">M</tspan><tspan x="124.5" y="153.6" class="st1 st2"> </tspan><tspan x="131.7" y="153.6" class="st1 st2">M</tspan><tspan x="157.4" y="153.6" class="st1 st2"> </tspan><tspan x="164.6" y="153.6" class="st1 st2">M</tspan><tspan x="190.4" y="153.6" class="st1 st2"> </tspan><tspan x="197.6" y="153.6" class="st1 st2">M</tspan><tspan x="223.3" y="153.6" class="st1 st2"> </tspan><tspan x="230.5" y="153.6" class="st1 st2">M</tspan><tspan x="256.2" y="153.6" class="st1 st2"> </tspan><tspan x="263.4" y="153.6" class="st1 st2">M</tspan><tspan x="289.2" y="153.6" class="st1 st2"> </tspan><tspan x="296.4" y="153.6" class="st1 st2">M</tspan><tspan x="322.1" y="153.6" class="st1 st2"> </tspan><tspan x="329.3" y="153.6" class="st1 st2">M</tspan><tspan x="355" y="153.6" class="st1 st2"> </tspan><tspan x="362.2" y="153.6" class="st1 st2">M</tspan><tspan x="387.9" y="153.6" class="st1 st2"> </tspan><tspan x="395.1" y="153.6" class="st1 st2">M</tspan><tspan x="420.9" y="153.6" class="st1 st2"> </tspan><tspan x="428.1" y="153.6" class="st1 st2">M</tspan><tspan x="453.8" y="153.6" class="st1 st2"> </tspan><tspan x="461" y="153.6" class="st1 st2">M</tspan><tspan x="486.7" y="153.6" class="st1 st2"> </tspan><tspan x="493.9" y="153.6" class="st1 st2">M</tspan><tspan x="519.7" y="153.6" class="st1 st2"> </tspan><tspan x="526.9" y="153.6" class="st1 st2">M</tspan><tspan x="552.6" y="153.6" class="st1 st2"> </tspan><tspan x="559.8" y="153.6" class="st1 st2">M</tspan><tspan x="585.5" y="153.6" class="st1 st2"> </tspan><tspan x="592.7" y="153.6" class="st1 st2">M</tspan><tspan x="618.4" y="153.6" class="st1 st2"> </tspan><tspan x="625.6" y="153.6" class="st1 st2">M</tspan><tspan x="651.4" y="153.6" class="st1 st2"> </tspan><tspan x="658.6" y="153.6" class="st1 st2">M </tspan><tspan x="0" y="192" class="st1 st2">M</tspan><tspan x="25.7" y="192" class="st1 st2"> </tspan><tspan x="32.9" y="192" class="st1 st2">M</tspan><tspan x="58.7" y="192" class="st1 st2"> </tspan><tspan x="65.9" y="192" class="st1 st2">M</tspan><tspan x="91.6" y="192" class="st1 st2"> </tspan><tspan x="98.8" y="192" class="st1 st2">M</tspan><tspan x="124.5" y="192" class="st1 st2"> </tspan><tspan x="131.7" y="192" class="st1 st2">M</tspan><tspan x="157.4" y="192" class="st1 st2"> </tspan><tspan x="164.6" y="192" class="st1 st2">M</tspan><tspan x="190.4" y="192" class="st1 st2"> </tspan><tspan x="197.6" y="192" class="st1 st2">M</tspan><tspan x="223.3" y="192" class="st1 st2"> </tspan><tspan x="230.5" y="192" class="st1 st2">M</tspan><tspan x="256.2" y="192" class="st1 st2"> </tspan><tspan x="263.4" y="192" class="st1 st2">M</tspan><tspan x="289.2" y="192" class="st1 st2"> </tspan><tspan x="296.4" y="192" class="st1 st2">M</tspan><tspan x="322.1" y="192" class="st1 st2"> </tspan><tspan x="329.3" y="192" class="st1 st2">M</tspan><tspan x="355" y="192" class="st1 st2"> </tspan><tspan x="362.2" y="192" class="st1 st2">M</tspan><tspan x="387.9" y="192" class="st1 st2"> </tspan><tspan x="395.1" y="192" class="st1 st2">M</tspan><tspan x="420.9" y="192" class="st1 st2"> </tspan><tspan x="428.1" y="192" class="st1 st2">M</tspan><tspan x="453.8" y="192" class="st1 st2"> </tspan><tspan x="461" y="192" class="st1 st2">M</tspan><tspan x="486.7" y="192" class="st1 st2"> </tspan><tspan x="493.9" y="192" class="st1 st2">M</tspan><tspan x="519.7" y="192" class="st1 st2"> </tspan><tspan x="526.9" y="192" class="st1 st2">M</tspan><tspan x="552.6" y="192" class="st1 st2"> </tspan><tspan x="559.8" y="192" class="st1 st2">M</tspan><tspan x="585.5" y="192" class="st1 st2"> </tspan><tspan x="592.7" y="192" class="st1 st2">M</tspan><tspan x="618.4" y="192" class="st1 st2"> </tspan><tspan x="625.6" y="192" class="st1 st2">M</tspan><tspan x="651.4" y="192" class="st1 st2"> </tspan><tspan x="658.6" y="192" class="st1 st2">M</tspan></text>
</svg>
